<svg xmlns="http://www.w3.org/2000/svg" width="511" height="511" viewBox="0 0 511 511">
  <defs>
    <style>
      .cls-1 {
        fill: #2b516b;
        fill-rule: evenodd;
      }
    </style>
  </defs>
  <path id="Forma_1" data-name="Forma 1" class="cls-1" d="M257,33c123.5,0,224,100.5,224,224S380.5,481,257,481,33,380.5,33,257,133.5,33,257,33m0-32C115.625,1,1,115.625,1,257S115.625,513,257,513,513,398.375,513,257,398.375,1,257,1h0ZM145.712,362.938a144.756,144.756,0,0,0,48.776,30.944c18.928,7.252,40.04,11.12,62.85,11.12,25.48,0,49.018-3.868,70.13-11.846,19.171-7.01,2.67-42.546-11.405-36.745-15.53,6.527-34.458,9.912-56.055,9.912-16.987,0-32.518-2.659-46.107-7.736a100.381,100.381,0,0,1-35.186-21.757A99.056,99.056,0,0,1,155.9,302.5c-5.581-13.538-8.25-29.01-8.25-45.932a122.1,122.1,0,0,1,8.008-44.722c5.338-13.538,12.618-25.625,22.325-35.295A101.231,101.231,0,0,1,212.445,153.1c13.347-5.56,28.392-8.461,44.893-8.461a143.064,143.064,0,0,1,41.981,6.044,86.488,86.488,0,0,1,32.032,17.889,83.265,83.265,0,0,1,21.112,29.251c5.1,11.6,7.522,25.141,7.522,40.612a107.027,107.027,0,0,1-2.912,25.384c-1.941,7.494-4.368,14.262-7.765,19.581a38.509,38.509,0,0,1-11.162,12.087c-5.1,3.384-12.619,5.318-18.443,3.384-7.28-2.417-5.824-12.57-5.339-18.614,0.728-8.219,2.912-15.955,4.611-23.933,2.669-13.054,5.581-25.866,8.251-38.678,1.456-7.011,3.154-14.263,4.61-21.274a14.594,14.594,0,0,0-14.317-17.647H306.842a14.554,14.554,0,0,0-14.075,10.637c-0.728,2.9-1.456,5.318-1.456,5.318-5.338-16.439-24.994-21.032-40.525-20.79-20.384.242-39.069,10.637-52.658,25.383-1.213,1.45-2.669,2.9-3.883,4.351A93.181,93.181,0,0,0,178.23,232.4a102.7,102.7,0,0,0-5.824,34.086,92.751,92.751,0,0,0,4.125,27.8,67.25,67.25,0,0,0,12.376,22.482,57.056,57.056,0,0,0,20.141,14.989,64.292,64.292,0,0,0,26.693,5.56,59.623,59.623,0,0,0,20.141-3.385,74.025,74.025,0,0,0,15.773-7.977,65.626,65.626,0,0,0,9.707-7.978,34.995,34.995,0,0,0,6.309,8.461c6.8,7.252,17.23,10.879,31.061,10.879a78.444,78.444,0,0,0,31.547-6.527,74.684,74.684,0,0,0,26.45-19.823,101.053,101.053,0,0,0,17.715-31.911c4.368-12.57,6.552-27.075,6.552-43.03,0-21.757-4.126-41.1-12.134-57.293a119.765,119.765,0,0,0-32.517-40.855C343,127,327.468,119.019,310.239,113.459a162.688,162.688,0,0,0-52.9-8.461A160.184,160.184,0,0,0,197.4,116.36a156.771,156.771,0,0,0-49.018,31.668A146.53,146.53,0,0,0,103,255.363c0,21.515,3.64,41.821,11.163,59.952A136.392,136.392,0,0,0,145.712,362.938ZM276.994,261.406a73.081,73.081,0,0,1-7.523,18.614A43.747,43.747,0,0,1,256.61,293.8c-4.853,3.384-10.677,5.076-17.957,5.076-4.611,0-8.251-.967-10.92-2.659a20.9,20.9,0,0,1-7.037-7.494,35.178,35.178,0,0,1-3.883-10.637A59.51,59.51,0,0,1,215.6,267.45a76.383,76.383,0,0,1,2.912-20.549,63.456,63.456,0,0,1,8.25-18.372,47.19,47.19,0,0,1,12.862-13.054,26.894,26.894,0,0,1,15.773-4.593c4.853,0,8.736.725,11.648,2.417a20.3,20.3,0,0,1,7.037,6.527,32.9,32.9,0,0,1,4.125,9.912,55.515,55.515,0,0,1,1.456,12.57A92.455,92.455,0,0,1,276.994,261.406Z" transform="translate(-1 -1)"/>
</svg>
