<?xml version="1.0"?>
<svg xmlns="http://www.w3.org/2000/svg" height="512px" viewBox="0 0 368 368" width="512px"><path d="m360 96h-32c-13.230469 0-24-10.769531-24-24 0-4.414062-3.574219-8-8-8s-8 3.585938-8 8c0 13.230469-10.769531 24-24 24s-24-10.769531-24-24v-32c0-13.230469 10.769531-24 24-24 4.425781 0 8-3.585938 8-8s-3.574219-8-8-8h-64c-39.695312 0-72 32.304688-72 72 0 13.230469-10.769531 24-24 24s-24-10.769531-24-24c0-4.414062-3.585938-8-8-8s-8 3.585938-8 8c0 13.230469-10.769531 24-24 24h-32c-4.414062 0-8 3.585938-8 8v256c0 1.039062.214844 2.078125.617188 3.054688.808593 1.953124 2.367187 3.511718 4.328124 4.328124.976563.402344 2.015626.617188 3.054688.617188h352c1.039062 0 2.078125-.214844 3.054688-.617188 1.960937-.808593 3.519531-2.367187 4.328124-4.328124.410157-.976563.617188-2.015626.617188-3.054688v-256c0-4.414062-3.574219-8-8-8zm-344 112h48v84.6875l-48 48zm11.3125 144 48-48h217.375l48 48zm52.6875-64v-80h208v80zm272 52.6875-48-48v-84.6875h48zm0-196.6875h-88c-4.425781 0-8 3.585938-8 8s3.574219 8 8 8h88v32h-336v-32h184c4.425781 0 8-3.585938 8-8s-3.574219-8-8-8h-184v-32h24c13.070312 0 24.695312-6.304688 32-16.023438 7.304688 9.71875 18.929688 16.023438 32 16.023438 22.054688 0 40-17.945312 40-40 0-30.878906 25.121094-56 56-56h32.015625c-5.03125 6.6875-8.015625 15-8.015625 24v32c0 22.054688 17.945312 40 40 40 13.070312 0 24.695312-6.304688 32-16.023438 7.304688 9.71875 18.929688 16.023438 32 16.023438h24zm0 0" fill="#fe434b"/></svg>
